# xmcd
#
# Track frame offsets:
#	150
#	15591
#	29648
#	40174
#	53376
#	78668
#	92686
#	108493
#	130440
#	145688
#	158042
#	173209
#	189042
#	199886
#	218384
#	232688
#	250590
#	283527
#	296966
#	325286
#	341219
#
# Disc length: 4757 seconds
# Revision: 0
# Processed by: cddbd v1.5.2PL0 Copyright (c) Steve Scherf et al.
# Submitted via: dBpowerAMP V12.0
#
DISCID=23129315
DTITLE=Various Artist - Old and Fat: FAT Favorites 6 [CD6 of 27)
DYEAR=1900
DGENRE=Country
TTITLE0=Mickey Newberry - Why You Been Gone So Long
TTITLE1=Danny O'Keefe - Plastic Saddle
TTITLE2=Rosalie Sorrels - I Like It
TTITLE3=Sol K. Bright's Hollywaiians - Hawaiian Cowboy
TTITLE4=Kaleidoscope - Ghost Riders in the Sky
TTITLE5=Jesse Winchester - Brand New Tennessee Waltz
TTITLE6=Gamble Rogers - Penrod and Elfreida
TTITLE7=Rusty Wier - I Heard You Been Layin' My Old Lady
TTITLE8=Danny O'Keefe - In Northern California (When the Palm Tree Meets the Pine)
TTITLE9=Luke Baldwin - Three Alarm Chili
TTITLE10=Hoyt Axton and Linda Ronstadt - Lion in the Winter
TTITLE11=Dakota Dave Hall and Sean Blackburn - Rollin' Along
TTITLE12=Doc Watson - Southbound Passenger Train
TTITLE13=California Zephyr - Smokin' My Last Cigarette
TTITLE14=Bobby Braddock - My Better Half
TTITLE15=Mission Mountain Wood Band - Sweet Maria (Athens County)
TTITLE16=Ramblin' Jack Elliot - 912 Greens
TTITLE17=Jim Ringer - Still Got That Look
TTITLE18=Jeffrey Fredrick and The Clamtones - Rotten Lettuce
TTITLE19=Michael Dinner - The Great Pretender
TTITLE20=Herb Pedersen - The Hey Boys
EXTD=
EXTT0=
EXTT1=
EXTT2=
EXTT3=
EXTT4=
EXTT5=
EXTT6=
EXTT7=
EXTT8=
EXTT9=
EXTT10=
EXTT11=
EXTT12=
EXTT13=
EXTT14=
EXTT15=
EXTT16=
EXTT17=
EXTT18=
EXTT19=
EXTT20=
PLAYORDER=
